<?xml version="1.0" encoding="utf-8"?>
<svg version="1.1" id="icon-lion-form" xmlns="http://www.w3.org/2000/svg" xmlns:xlink="http://www.w3.org/1999/xlink" x="0px"
	 y="0px" viewBox="0 0 25.6 32" style="enable-background:new 0 0 25.6 32;" xml:space="preserve">
<g>
	<path d="M14.3,1.1C14.2,1,14.1,1,14,1c-0.1,0-0.3,0-0.4,0C13.8,1.1,14,1.2,14,1.4c0,0.2-0.1,0.4-0.1,0.5c0,0.1-0.1,0.2-0.1,0.3
		c0.1,0,0.1,0,0.2,0c0.1,0,0.2,0.1,0.3,0.1c0.1-0.1,0.3-0.5,0.3-0.8c0-0.1,0-0.1,0-0.2C14.4,1.2,14.4,1.2,14.3,1.1L14.3,1.1z"/>
	<path d="M12,1.2C12,1.2,12,1.2,12,1.2c-0.1,0.1-0.1,0.1-0.2,0.1c-0.1,0.1-0.2,0.1-0.2,0.1c0,0.1,0.1,0.2,0.1,0.4
		c0.1,0.1,0.1,0.2,0.1,0.4c0.1,0,0.1,0,0.2,0c0.1,0,0.1,0,0.2,0c0.1,0,0.2,0,0.2,0h0l0-0.9C12.5,1.3,12.3,1.2,12,1.2L12,1.2z"/>
	<path d="M12.3,2.5c-0.1,0-0.2,0-0.3,0c-0.3,0-0.7,0-0.9,0.1c0,0.1,0,0.2,0,0.3c0,0,0.1,0,0.1,0l0.2,0c0.3,0,0.9-0.1,1.3-0.1h0
		c0.3,0,0.5,0,0.6,0c0.2,0,0.3,0,0.6,0l0,0c0,0,0,0,0.1,0l0-0.3c-0.1,0-0.2-0.1-0.3-0.1c-0.1,0-0.3-0.1-0.5-0.1c-0.1,0-0.2,0-0.3,0
		l0,0C12.8,2.5,12.6,2.5,12.3,2.5L12.3,2.5z"/>
	<path d="M11.6,1C11.6,1,11.6,1,11.6,1c-0.1,0-0.2,0-0.2,0c-0.2,0-0.3,0.1-0.4,0.2c0,0,0,0.1-0.1,0.1c0,0,0,0.1,0,0.1
		c0,0,0,0.1,0,0.1c0,0.3,0.1,0.6,0.2,0.8c0.2,0,0.3-0.1,0.6-0.1c0-0.1-0.1-0.2-0.1-0.3c-0.1-0.1-0.1-0.3-0.1-0.5
		C11.4,1.2,11.6,1.1,11.6,1C11.7,1.1,11.7,1.1,11.6,1C11.7,1,11.7,1,11.6,1L11.6,1z"/>
	<path d="M13.3,1.1L13.3,1.1c-0.1,0.1-0.3,0.1-0.5,0.1l0,0.9c0.1,0,0.1,0,0.2,0c0.2,0,0.3,0,0.4,0c0-0.1,0.1-0.3,0.1-0.4
		c0.1-0.1,0.1-0.3,0.1-0.4c0,0-0.1-0.1-0.2-0.1C13.4,1.2,13.3,1.2,13.3,1.1L13.3,1.1z"/>
	<path d="M18.1,11.2c-0.1,0-0.1,0-0.2,0c0,0-0.1,0-0.1,0l0,0c-0.2-0.1-0.4-0.2-0.5-0.3c-0.1-0.1-0.2-0.3-0.4-0.7l0,0
		c-0.2-0.5-0.7-1-1.2-1.3c-0.1,0-0.2-0.1-0.3-0.1c-0.1,0-0.1,0-0.2,0l0,0c0,0,0,0-0.1,0c-0.1,0-0.3,0.1-0.4,0.1
		c0.3,0.3,0.6,0.8,0.5,1.4c0.6,0.5,0.9,1,1,1.5c0,0,0.1,0.1,0.1,0.1l0,0c0.5,0.1,0.8,0.2,1.1,0.2v0.1l0-0.1c0.3,0,0.6-0.1,0.8-0.3
		c0.3-0.2,0.4-0.5,0.4-0.7C18.5,11.2,18.3,11.2,18.1,11.2L18.1,11.2z"/>
	<path d="M8,11.2L8,11.2l-0.1,0c-0.1,0-0.3,0.1-0.5,0.2c-0.3,0.1-0.7,0.3-1,0.3c-0.1,0-0.2,0-0.2,0c0,0.2,0.1,0.5,0.5,0.7
		c0.1,0,0.2,0,0.5-0.1v0l0.2,0c0.3,0,0.7-0.1,1.6-0.4c0.1,0,0.1,0,0.2-0.1c-0.2,0-0.3-0.1-0.5-0.2l-0.1-0.1
		C8.4,11.4,8.2,11.3,8,11.2C8.1,11.2,8,11.2,8,11.2z"/>
	<path d="M3.5,12.5c0.1,0.2,0.2,0.4,0.4,0.6c0.1,0,0.1,0.1,0.2,0.1c0.1,0,0.2,0,0.3,0c0.3,0,0.6-0.1,1.1-0.2
		c0.3-0.1,0.6-0.3,0.9-0.5c-0.4-0.3-0.5-0.6-0.5-0.8c-0.2,0.1-0.4,0.2-0.6,0.3c-0.2,0.1-0.4,0.2-0.5,0.2l-0.1,0v0
		C4.3,12.4,3.7,12.5,3.5,12.5L3.5,12.5z"/>
	<path d="M16.4,5.1c0.3,0.2,0.4,0.3,0.6,0.5c0.1,0.2,0.2,0.3,0.3,0.6c0,0.1,0.1,0.2,0.1,0.3c0,0,0,0,0,0l0,0c0.8,0,1-0.6,1-0.8
		c-0.3-0.1-0.6-0.1-0.8-0.3c-0.2-0.2-0.4-0.4-0.6-0.8c-0.1-0.1-0.2-0.3-0.4-0.5l0,0c0,0-0.1-0.1-0.1-0.1c0,0-0.1,0-0.1-0.1h0l0,0
		c-0.1-0.1-0.3-0.1-0.4-0.2c-0.1,0-0.2,0-0.3,0c0,0.1,0,0.1,0,0.2c0,0.6-0.1,0.8-0.2,0.9C15.7,4.7,16,4.8,16.4,5.1L16.4,5.1z"/>
	<path d="M6.7,11.3c-0.1,0-0.1,0.1-0.2,0.1c0.3,0,0.6-0.2,0.8-0.3c0,0,0.1,0,0.1-0.1c-0.1,0-0.3,0.1-0.5,0.1
		C6.9,11.2,6.8,11.3,6.7,11.3L6.7,11.3z"/>
	<path d="M7.1,8.5c0,0.1,0,0.2,0,0.3c0,0.1,0.1,0.2,0.2,0.3C8,9.1,8.6,8.9,9.1,8.7c0.1,0,0.1,0,0.2-0.1c-0.2,0-0.4,0-0.6,0.1l-0.1,0
		c0,0-0.1,0-0.1,0C7.9,8.7,7.4,8.6,7.1,8.5L7.1,8.5z"/>
	<path d="M12.2,0.4c0,0.1,0,0.2,0,0.3l0.4-0.1l0,0.1c0,0.1,0,0.2,0,0.2c0,0,0,0,0,0c0.1,0,0.3,0,0.3,0c0-0.1,0-0.3-0.1-0.3l0-0.1
		h0.1c0,0,0.1,0,0.3,0l0-0.3c-0.1,0-0.3,0-0.3,0c0,0,0,0,0,0l-0.1,0V0.3c0-0.1,0-0.2,0-0.3l-0.3,0c0,0.1,0.1,0.3,0.1,0.3l0,0.1
		l-0.1,0C12.4,0.4,12.2,0.4,12.2,0.4L12.2,0.4z"/>
	<path d="M1.1,6.5c0,0.2,0,0.4,0.1,0.6c0,0.1,0.1,0.2,0.2,0.2c0.1,0.1,0.2,0.1,0.3,0.2c0.1,0,0.2,0,0.2,0c0.2,0,0.4-0.1,0.6-0.2
		l0.1,0l0.1,0.2l-0.1,0C2.4,7.7,2.1,7.8,1.9,7.8c0,0.1-0.1,0.2-0.1,0.3c0,0.1,0,0.2,0,0.3C2,8.5,2.2,8.6,2.2,9.2c0,0,0,0,0.1,0
		c0,0,0.1,0,0.1,0c0.2,0.1,0.4,0.1,0.5,0.1c0.1,0,0.2,0,0.2,0C3.4,9.3,3.6,9.1,3.7,9c0.1-0.1,0.2-0.3,0.2-0.5c0,0,0-0.1,0-0.1
		c0,0,0-0.1,0-0.1c0,0,0,0,0-0.1c0,0,0,0,0-0.1c0-0.1,0-0.1,0-0.1l0-0.1L4,7.9l0,0.1c0,0.1,0.1,0.2,0.1,0.2c0,0,0,0,0,0.1
		s0,0.1,0,0.1c0,0.1,0,0.1,0,0.2c0,0.1,0,0.1,0,0.2C4.1,8.7,4.1,8.9,4,9C4.1,9,4.3,9.1,4.5,9.2C5,9.4,5.8,9.8,6,10.2c0,0,0,0,0,0
		c0,0,0.1,0,0.1-0.1C6,9.9,6,9.7,6,9.5C5.6,9.4,5.2,9.2,4.8,8.9C4.8,8.8,4.7,8.8,4.6,8.7C4.6,8.6,4.5,8.6,4.5,8.5l0,0l0.2-0.2l0,0
		c0,0.1,0.1,0.1,0.2,0.2C4.9,8.6,5,8.6,5,8.7c0.3,0.2,0.7,0.4,1,0.5l0-0.1l0.1,0c0.3,0,0.6,0,0.9,0C6.9,9.1,6.9,9,6.9,8.9
		c0-0.2,0-0.4,0-0.6l0-0.2c0,0-0.1,0-0.1-0.1l0,0C6.3,7.8,5.9,7.5,5.6,7.2C5.5,7.2,5.4,7.1,5.4,7.1S5.2,7,5.2,6.9L5.1,6.8l0.2-0.1
		c0.2-0.1,0.4-0.3,0.5-0.4C5.8,6.2,5.8,6,5.8,5.8c0-0.2-0.1-0.3-0.2-0.4c0,0,0,0-0.1-0.1s0,0-0.1-0.1c0,0,0,0,0,0
		c-0.2,0-0.3,0-0.5-0.1c0,0-0.1,0-0.1-0.1c0,0,0,0,0,0.1c0,0.2,0,0.5-0.2,1l0,0.1L4.5,6.1l0-0.1c0.1-0.4,0.1-0.7,0.1-0.9
		c0-0.1,0-0.2,0-0.3C4.5,4.7,4.4,4.5,4.2,4.4C4,4.3,3.8,4.3,3.5,4.3C3.3,4.6,2.9,4.7,2.7,4.7C2.6,4.8,2.6,4.8,2.6,4.9
		c0,0.1,0,0.2,0,0.3c0,0,0.1,0,0.1,0c0.1,0,0.2,0.1,0.4,0.2C3.1,5.6,3.2,5.8,3.4,6l0,0.1L3.2,6.2l0-0.1C3,6,2.9,5.8,2.8,5.7
		C2.7,5.6,2.6,5.6,2.6,5.6c-0.1,0-0.2,0-0.2-0.1c-0.1,0-0.3-0.1-0.5-0.1c-0.1,0-0.2,0-0.3,0.1c-0.1,0-0.1,0.1-0.2,0.2
		C1.5,6.2,1.2,6.4,1.1,6.5L1.1,6.5z"/>
	<path d="M17,31.6c0.1-0.1,0.3-0.1,0.4-0.1c0-0.1,0-0.1,0-0.2c0-0.1-0.1-0.3-0.2-0.3c-0.1-0.1-0.2-0.1-0.2-0.1c0,0,0,0,0,0
		c0,0,0,0,0,0c0,0-0.1,0.1-0.2,0.2c0,0,0,0.1-0.1,0.1c0,0,0,0.1-0.1,0.1c-0.1,0.1-0.1,0.3-0.1,0.4c0,0.1,0,0.2,0.1,0.3
		C16.7,31.8,16.9,31.7,17,31.6L17,31.6z"/>
	<path d="M15.9,29.9c0-0.2,0-0.4-0.2-0.7c-0.1,0-0.5,0.1-0.7,0.4c-0.1,0.1-0.1,0.3-0.1,0.5c0.2-0.1,0.5-0.3,0.7-0.3
		C15.7,29.9,15.8,29.9,15.9,29.9L15.9,29.9z"/>
	<path d="M9.6,5c0,0.3,0,0.4,0.1,0.5c0.1,0.1,0.2,0.1,0.4,0.1c0.1,0,0.2,0,0.2,0c0.1,0,0.1,0,0.2,0l0.1,0c0.1,0,0.2-0.1,0.4-0.1
		c0.1-0.1,0.2-0.1,0.3-0.1c0.1,0,0.2,0,0.3,0l0.1,0l0,0c0.1,0,0.1,0.1,0.2,0.1c0.2,0.1,0.3,0.3,0.3,0.4c0.1,0.2,0.1,0.3,0.1,0.6
		c0,0.5-0.1,0.9-0.2,1.1c-0.1,0.2-0.3,0.3-0.4,0.3c-0.1,0-0.4,0-0.7,0c-0.2,0-0.3,0-0.4,0c-0.1,0-0.1,0-0.2,0c0,0-0.1,0-0.1,0
		c-0.1,0-0.2,0-0.2-0.1c-0.1,0-0.1-0.1-0.2-0.1c0,0,0,0-0.1,0l0,0c0,0,0,0,0,0c0,0.1,0,0.1,0,0.2c0,0.2-0.1,0.4-0.2,0.6l0.1,0
		c0.3,0,0.7-0.1,0.9-0.1h0c0.1,0,0.1,0,0.2,0c0.1,0,0.1,0,0.2,0s0.1,0,0.2,0c0.3,0.1,0.5,0.1,0.7,0.2c0.1,0,0.3,0,0.6,0l0.5,0
		c0.1,0,0.1-0.1,0.2-0.1c0.1-0.1,0.1-0.1,0.2-0.2c0.3-0.4,0.5-1,0.4-1.4l0-0.1l0.3-0.1l0,0.1c0.1,0.6-0.1,1.3-0.5,1.7
		c-0.1,0.1-0.1,0.2-0.2,0.2c0,0,0,0,0,0c0.3,0.1,0.8,0.3,1,0.8c0.1,0.1,0.3,0.2,0.4,0.4c0,0,0,0,0,0c0,0,0,0,0.1,0
		c0.1,0.1,0.3,0.2,0.4,0.3c0-0.7-0.7-1.2-0.7-1.2l-0.4-0.3l0.5,0c0.3,0,0.5,0,0.7-0.1c0.1-0.1,0.2-0.1,0.3-0.2
		c0.2-0.2,0.3-0.4,0.3-0.5c-0.4,0-0.6-0.1-0.8-0.3c-0.2-0.2-0.2-0.5-0.2-0.5V6.9l0.1,0c0.6,0.1,0.9-0.3,1-0.6c-0.1,0-0.2,0-0.3-0.1
		c-0.2-0.1-0.3-0.1-0.4-0.3c-0.2-0.2-0.2-0.6-0.2-0.9c0-0.1,0-0.2,0-0.3l0-0.1l0.1,0l0-0.1l0.1,0c0,0,0,0,0.1,0c0,0,0-0.1,0.1-0.1
		c0.1-0.1,0.2-0.2,0.2-0.8c0-0.3,0-0.5-0.1-0.6c-0.2,0.1-0.4,0.2-0.5,0.3c-0.1,0.1-0.2,0.3-0.2,0.5c0,0.2,0,0.6,0,0.6l0,0.1l-0.1,0
		c-0.2,0-0.3,0-0.4-0.1c-0.1,0-0.2-0.1-0.3-0.3l0-0.1l0.2-0.2l0,0C14,4.3,14,4.4,14.1,4.4c0,0,0.1,0,0.2,0c0-0.1,0-0.3,0-0.5
		c0-0.3,0.1-0.5,0.3-0.7c0.1-0.1,0.2-0.2,0.3-0.2c-0.1,0-0.2,0-0.3,0c-0.2,0-0.4,0-0.5,0.1c-0.1,0.1-0.2,0.2-0.3,0.3
		c-0.1,0.1-0.1,0.3-0.1,0.4c0,0,0,0.1,0,0.1c0,0,0,0.1,0,0.1l0,0.1l-0.2,0.1l0-0.1c0,0,0-0.1,0-0.1c0,0,0-0.1,0-0.1
		c0-0.2,0.1-0.4,0.2-0.6c0-0.1,0.1-0.1,0.2-0.2c-0.1,0-0.1,0-0.2,0c-0.2,0-0.4,0-0.6,0h0c-0.4,0-0.9,0-1.3,0.1c-0.1,0-0.2,0-0.2,0
		c-0.1,0-0.1,0-0.2,0c0,0.1,0,0.2-0.1,0.2l0,0.1l0,0l0,0l-0.1,0c-0.1,0-0.1,0-0.2,0c-0.2,0-0.4,0.1-0.5,0.1c-0.1,0-0.2,0.1-0.3,0.2
		c0,0,0,0.1,0,0.1C9.9,3.9,9.9,4,10,4c0.1,0,0.1,0,0.2-0.1c0.1,0,0.2-0.1,0.4-0.1l0.1,0l0,0.3l-0.1,0c-0.1,0-0.2,0-0.2,0
		c-0.1,0-0.2,0.1-0.3,0.1c-0.2,0-0.3,0.1-0.3,0.2C9.6,4.6,9.6,4.7,9.6,5L9.6,5z M11.1,3.6L11.1,3.6c0-0.1,0.1-0.2,0.2-0.3l0,0
		l0.2,0.2l0,0c0,0,0,0,0,0c0.5,0.1,0.7,0.4,0.8,0.5l0.2,0.3L12,4.2c-0.1,0-0.4-0.1-0.6-0.1V4.1l0,0.1c0,0-0.1,0-0.1,0
		c0,0-0.1,0-0.1,0l-0.1,0l-0.1-0.3l0.1,0c0,0,0-0.1,0-0.1l-0.1,0L11.1,3.6L11.1,3.6z"/>
	<path d="M24.7,22.4c0-0.1,0-0.2,0-0.3c0,0,0-0.1,0-0.1c0-0.3-0.1-0.5-0.2-0.6c-0.1,0.4-0.3,0.4-0.8,0.5c-0.1,0-0.3,0-0.5,0.1
		c-0.9,0.1-1.1,0.5-1.1,0.5L22,22.7l-0.1,0l0-0.3c0-0.4-0.2-0.7-0.4-0.9c-0.1,0-0.1-0.1-0.2-0.1c-0.1,0-0.1-0.1-0.2-0.1
		c0,0-0.1,0-0.1,0c-0.1,0-0.4,0.1-0.6,0.2c-0.1,0-0.1,0.1-0.2,0.1c-0.1,0-0.1,0.1-0.2,0.1c0,0-0.1,0.1-0.1,0.1
		c-0.2,0.2-0.4,0.4-0.6,0.5c-0.2,0.1-0.4,0.1-0.7,0.1c-0.4,0-0.7-0.1-1-0.4c-0.2-0.3-0.4-0.7-0.4-1.3c-0.1-0.8-0.2-1.2-0.3-1.6
		c-0.1-0.4-0.3-0.7-0.6-1.1l0-0.1l0.2-0.1l0,0c0,0,0.7,0.9,2.3,0.9c0.5,0,1.1-0.2,1.6-0.4c0.1-0.1,0.2-0.1,0.3-0.2
		c0.1-0.1,0.2-0.1,0.3-0.2c0,0,0.1,0,0.1-0.1c0.3-0.3,0.5-0.5,0.7-0.9c0.2-0.4,0.3-0.8,0.3-1.3c0-0.7,0-0.8-0.2-1.4l0-0.2
		c-0.1-0.5-0.3-1-0.4-1.6c-0.2-0.6-0.3-1.2-0.5-1.7c-0.3-1.1-0.6-2-0.7-2.7c-0.2-0.9-0.3-1.7-0.3-2.4c0-1,0.2-1.3,0.3-1.6l0,0
		c0.2-0.3,0.3-0.5,0.5-0.6c0.2-0.1,0.4-0.2,0.7-0.2c0.6,0,0.9,0.1,1.1,0.3c0.1,0.2,0.2,0.4,0.2,0.6c0.1,0,0.3,0,0.5,0
		c0.2,0,0.4,0,0.5,0c0-0.1,0-0.2,0-0.3c0-0.1,0-0.2-0.1-0.3c-0.2-0.5-0.5-0.8-1-1c-0.1,0-0.1,0-0.2-0.1c-0.1,0-0.2,0-0.4-0.1
		c-0.1,0-0.3,0-0.4,0l-0.1,0c-0.4,0-1.2,0.1-1.8,0.5c-0.4,0.3-0.6,0.7-0.8,1.2c-0.1,0.4-0.2,0.9-0.2,1.5c0,0.8,0.1,1.6,0.4,2.7
		c0.2,1,0.5,2,0.8,2.8c0.2,0.7,0.4,1.4,0.6,2.1l0,0.1c0,0.2,0.1,0.3,0.1,0.5l0,0.1c0.1,0.5,0.2,0.9,0.2,1.6c0,0.1,0,0.2,0,0.4
		c-0.1,0.6-0.4,1-0.9,1.3c-0.5,0.3-1,0.3-1.3,0.4c-0.1,0-0.1,0-0.2,0h0c0,0-0.1,0-0.1,0c-0.1,0-0.3,0-0.4-0.1
		c-0.1,0-0.3-0.1-0.4-0.2c-0.7-0.3-1.2-1-1.5-1.8l0-0.1c-0.2-0.5-0.2-1.1-0.3-1.7c0-0.1,0-0.2,0-0.4c0-0.1-0.1-0.1-0.1-0.2
		c-0.1-0.1-0.2-0.2-0.3-0.3C15.2,13.1,15.1,13,15,13c-0.5-0.3-1-0.5-1.4-0.5c-0.9,0-1.9,0.8-2,0.9l-0.1,0.1l-0.1-0.1
		c0,0,0-0.1,0-0.1c0,0,0-0.1,0-0.1c0-0.1-0.1-0.3-0.1-0.6c-0.2,0-0.6,0.2-1,0.4c-0.1,0.1-0.3,0.1-0.4,0.2c-0.5,0.2-0.9,0.3-1.4,0.4
		c-0.1,0-0.2,0-0.2,0c-0.1,0-0.1,0-0.2,0l-0.1,0c0,0,0,0,0,0c-0.4,0.3-1.1,0.6-1.7,0.8l-0.1,0.1c0,0-0.1,0.1-0.2,0.1l0,0
		c-0.3,0.2-1,0.6-1.6,0.9l-0.2,0.1l0-0.2c0,0,0-0.7-0.4-1.1C3.5,14,3.3,14,3.1,14c-0.1,0-0.2,0-0.3,0l-0.1,0
		c-0.1,0.5-0.5,0.5-0.7,0.5c0,0,0,0,0,0c-0.1,0.1-0.1,0.2-0.2,0.2c0,0,0,0.1,0,0.1c0.1,0,0.1,0,0.2,0c0.1,0,0.2,0,0.3,0
		c0.1,0,0.1,0,0.2,0.1v0l0.1,0c0.4,0.2,0.7,0.5,0.8,0.8l0,0.1L3.2,16l0-0.1c-0.1-0.3-0.4-0.5-0.7-0.7l0,0c-0.1,0-0.1,0-0.2-0.1
		c-0.1,0-0.2,0-0.2,0c0,0-0.1,0-0.1,0c-0.3,0-0.5,0.1-0.7,0.3c0,0-0.1,0.1-0.1,0.1s0,0.1,0,0.1c0,0,0,0,0,0.1c0,0,0,0.1,0,0.2
		c0,0.1,0,0.2,0,0.2c0,0.2-0.1,0.4-0.1,0.5c0,0,0,0,0,0c0,0,0,0.1,0,0.1c0.1,0.1,0.1,0.3,0.2,0.3c0.1-0.1,0.3-0.3,0.5-0.3
		c0.1-0.1,0.3-0.1,0.5-0.1l0.1,0l0,0.3l-0.1,0c-0.1,0-0.3,0-0.4,0.1c-0.2,0.1-0.4,0.2-0.5,0.3c-0.1,0.1-0.2,0.3-0.1,0.5
		c0,0,0,0.1,0,0.1c0.1,0,0.2,0.1,0.2,0.2c0,0,0,0,0.1,0.1s0,0,0,0.1c0.1,0.1,0.1,0.4,0.1,0.6c0,0,0,0,0,0l0,0c0,0,0.1,0.1,0.1,0.1
		C1.9,19,2,19,2,19c0.2,0.1,0.4,0.2,0.7,0.2c0,0,0.1,0,0.1,0c0.1,0,0.1,0,0.2,0c0.1,0,0.1,0,0.2-0.1c0.2-0.1,0.4-0.3,0.5-0.4
		c-0.1-0.1-0.2-0.2-0.2-0.4c-0.1-0.2-0.1-0.4-0.1-0.6c0-0.1,0.1-0.2,0.1-0.3l0,0l0.2,0.2l0,0c0,0-0.1,0.1-0.1,0.2
		c0,0.1,0,0.3,0.1,0.4c0.1,0.2,0.1,0.3,0.3,0.4c0.1,0.1,0.2,0.1,0.3,0.2c0.3,0,0.5,0,0.7-0.1c0,0,0.1,0,0.1-0.1c0,0,0,0,0.1,0
		c0-0.1,0.2-0.6,0.6-0.7c0-0.1,0.1-0.1,0.1-0.2c0,0,0-0.1,0-0.1c0,0,0-0.1,0-0.1c0,0,0-0.1,0-0.1c0-0.4-0.2-0.7-0.3-0.9
		c0,0-0.1-0.1-0.1-0.1c0,0-0.1-0.1-0.1-0.1c0,0,0,0-0.1,0l-0.1,0L5.4,16l0.1,0c0,0,0.1,0,0.1,0c0,0,0.1,0.1,0.1,0.1
		c0,0,0.1,0.1,0.1,0.1c0.1,0.1,0.2,0.2,0.3,0.4c0.3-0.1,0.7-0.2,0.9-0.3l0.3-0.1l0.1,0.1c0,0,0.5,0.8,1.5,0.8c0,0,0.1,0,0.1,0
		c0.1,0,0.2,0,0.2,0c0.1,0,0.1,0,0.2,0c0.2,0,0.4-0.1,0.5-0.2c-0.1,0-0.2,0-0.2-0.1C9.3,16.7,9,16.4,8.8,16l0-0.1L9,15.8l0,0.1
		c0.1,0.3,0.4,0.6,0.8,0.7c0.1,0,0.1,0.1,0.2,0.1c0.1,0,0.2,0,0.2,0c0,0,0.1,0,0.1,0c0.1,0,0.3,0,0.5-0.1c0.1-0.1,0.3-0.2,0.5-0.3
		c0.2-0.2,0.4-0.3,0.4-0.4c-1,0-1.2-0.5-1.2-0.5l-0.1-0.1l0.1-0.1c0.7-0.3,1.4-0.4,2.1-0.4c0.1,0,0.1,0,0.2,0c0.2,0,0.3,0,0.5,0
		c0.1,0,0.2,0,0.4,0.1v0l0.2,0l0,0.1c0,0,0.2,0.7,1,0.7c0,0,0,0,0.1,0l0.1,0l0,0.3l-0.1,0c-0.1,0-0.3,0-0.4,0c0,0.1,0.1,0.2,0.2,0.3
		c0.1,0.1,0.3,0.2,0.5,0.2c0.1,0,0.2,0,0.4,0l0.1,0l0,0.3l-0.1,0c-0.2,0-0.3,0-0.4,0c-0.2,0-0.4-0.2-0.6-0.3
		c-0.2-0.1-0.3-0.3-0.3-0.5c0,0,0-0.1,0-0.1c-0.4-0.2-0.6-0.5-0.6-0.7c-0.1,0-0.2-0.1-0.4-0.1c-0.1,0-0.3,0-0.4,0
		c-0.6,0-1.3,0.1-2,0.3c0.1,0.1,0.4,0.3,1,0.3l0.2,0l0,0.2c0,0,0,0.4-0.6,0.8c-0.2,0.1-0.4,0.2-0.5,0.3c0,0,0,0-0.1,0
		c0.1,0.1,0.2,0.1,0.5,0.2l0,0c0.1,0,0.1,0.1,0.2,0.1c0.1,0,0.2,0.1,0.3,0.2c0.1,0.1,0.2,0.1,0.2,0.2c0.1,0.1,0.1,0.2,0.2,0.2
		c0.2,0.3,0.4,0.7,0.4,0.9c0,0.1,0,0.1,0,0.2c0,0.2-0.1,0.5-0.1,0.8c-0.1,0.3-0.1,0.7-0.1,0.9c0,0.2,0.1,0.4,0.1,0.6
		c0.1,0.2,0.1,0.4,0.2,0.6c0,0.4,0.1,0.7,0.2,0.9c0.1,0.3,0.2,0.6,0.4,0.8c0.1,0.1,0.1,0.2,0.2,0.3c0.3,0.5,0.6,1,0.6,1.4
		c0,0.3-0.1,0.6-0.1,0.8c0.2,0,0.4-0.1,0.6-0.2c0.2-0.1,0.4-0.3,0.5-0.4c0.2-0.2,0.3-0.4,0.4-0.6c-0.2-0.2-0.4-0.3-0.6-0.5
		c-0.1-0.2-0.2-0.3-0.3-0.5c-0.1-0.2-0.2-0.3-0.2-0.5c0-0.1,0-0.1,0-0.2l0-0.1l0.3,0l0,0.1c0,0,0,0.1,0,0.1c0,0.1,0.1,0.3,0.2,0.4
		c0.1,0.1,0.2,0.3,0.3,0.4c0.6,0.7,1.5,1.1,2.2,1.1c0.9,0,1.8-0.5,1.8-0.5l0.1-0.1l0.1,0.1c0,0.1,0.1,0.2,0.1,0.3
		c0,0.1,0.1,0.2,0.1,0.3c0.1,0.7,0.2,1.4,0.1,2c0,0.2-0.1,0.4-0.2,0.5C19.4,27.9,19.2,28,19,28l0,0c-0.2,0-0.4,0-0.5-0.1
		c-0.1-0.1-0.2-0.1-0.3-0.2c-0.3-0.4-0.5-0.6-0.7-0.8c-0.2-0.1-0.4-0.2-0.7-0.2c-0.4,0-0.5,0.2-0.6,0.3c0,0.1,0.1,0.2,0.1,0.3
		c0,0.4-0.2,0.6-0.3,0.6c0,0.1,0,0.1,0,0.2c0,0,0,0.1,0,0.1c0,0,0,0,0.1,0c0.1-0.1,0.2-0.1,0.2-0.1c0,0,0,0,0.1,0c0,0,0.1,0,0.1,0
		h0.1c0.1,0,0.4,0,0.6,0.1l0.1,0l-0.1,0.3l-0.1,0c-0.2,0-0.4-0.1-0.5-0.1l-0.1,0c0,0-0.1,0-0.1,0c0,0,0,0-0.1,0c0,0-0.1,0-0.1,0.1
		c-0.1,0-0.1,0.1-0.1,0.1c-0.2,0.1-0.2,0.3-0.2,0.5c0.4,0.4,0.3,0.9,0.2,1c0,0,0,0.1,0,0.1c0,0,0,0.1,0.1,0.1
		c0.1,0.1,0.2,0.2,0.3,0.3c0-0.2,0-0.5,0.2-0.8l0,0l0,0c0.1-0.2,0.3-0.4,0.5-0.5c0.2-0.1,0.4-0.1,0.7,0l0.1,0l0,0.3l-0.1,0
		c-0.2,0-0.4,0-0.5,0c-0.1,0.1-0.3,0.2-0.4,0.4c-0.2,0.3-0.2,0.6-0.1,0.8c0,0,0,0,0.1,0c0,0,0.1,0,0.1,0c0.1,0,0.3,0.1,0.4,0.2
		c0.1,0.1,0.2,0.3,0.3,0.5c0,0.1,0,0.2,0,0.3c0,0,0.1,0,0.1,0c0.2,0.1,0.3,0.2,0.5,0.2c0.1,0,0.2,0,0.5,0c0.4-0.1,0.6-0.2,0.8-0.5
		c0.2-0.3,0.3-0.6,0.3-1.2l0-0.1H20c0,0,0,0,0,0c-0.1-0.1-0.1-0.3-0.2-0.6l0-0.1l0.3,0l0,0.1c0.1,0.5,0.1,0.5,0.4,0.7l0.1,0
		c0.4,0.3,0.8,0.4,1.3,0.3c0.1,0,0.1,0,0.2,0s0.1,0,0.2-0.1l0,0h0c0.3-0.1,0.3-0.4,0.3-0.6c0,0,0-0.1,0-0.1c0,0-0.1-0.1-0.1-0.1
		c0,0-0.1-0.1-0.1-0.2l0,0c0,0,0,0,0-0.1c0-0.1,0-0.1,0-0.2c0-0.3,0.1-0.5,0.1-0.7c-0.1-0.1-0.1-0.2-0.2-0.3C22.1,28,22,28,21.9,28
		c-0.4,0-0.7,0.2-0.7,0.2l-0.3,0.3l0.1-0.4c0.4-1.2,1.2-1.4,1.6-1.5c0-0.7-0.1-1.5-0.1-1.5l0-0.1l0.1,0c0.5,0,0.8,0,1.1-0.2
		c0.2-0.1,0.4-0.2,0.5-0.4c0.1-0.2,0.2-0.3,0.2-0.5c0-0.2,0-0.3-0.1-0.5c-0.2,0.1-0.3,0.1-0.5,0.1c-0.4,0-0.6,0-0.8,0.1
		c-0.3,0.1-0.4,0.1-0.4,0.2l0,0.1l-0.2-0.1l0-0.1c0.1-0.2,0.3-0.3,0.6-0.3c0.2,0,0.5-0.1,0.9-0.1c0.4,0,0.7-0.2,0.9-0.6
		C24.7,22.5,24.7,22.5,24.7,22.4L24.7,22.4z M8.2,15.5c-0.3,0.1-0.5,0.2-0.7,0.3c-0.6,0.2-0.9,0.3-1.3,0.4l-0.1,0l0-0.3l0.1,0
		c0.3,0,0.7-0.2,1.2-0.4c0.2-0.1,0.5-0.2,0.8-0.3l0.1,0L8.2,15.5L8.2,15.5L8.2,15.5z"/>
	<path d="M22.7,29.4c0.1-0.1,0.3-0.1,0.5-0.1c0.2,0,0.4,0,0.5,0.1c0-0.2,0-0.5-0.3-0.6c-0.2-0.1-0.5-0.1-0.8-0.1
		c0,0.1-0.1,0.3-0.1,0.5c0,0,0,0.1,0,0.1l0,0c0,0,0,0,0,0C22.7,29.3,22.7,29.3,22.7,29.4C22.7,29.4,22.7,29.4,22.7,29.4L22.7,29.4z"
		/>
	<path d="M15.4,27.6c0.2,0,0.4,0.1,0.5,0.1c0.1-0.1,0.1-0.2,0.1-0.4c0-0.1,0-0.2,0-0.2c-0.1,0-0.2,0-0.3,0c-0.2,0-0.4,0.1-0.6,0.2
		c-0.1,0.1-0.2,0.2-0.2,0.4c0.1,0,0.2,0,0.3-0.1C15.3,27.6,15.4,27.6,15.4,27.6L15.4,27.6z"/>
	<path d="M7.2,5.5C7.2,5.5,7.2,5.5,7.2,5.5c0,0.3,0.1,0.5,0.1,0.6c0.1,0.1,0.2,0.2,0.3,0.3c0.2,0.1,0.5,0.2,0.9,0.2c0.3,0,0.7,0,1,0
		h0.1c0.1,0,0.2,0,0.3,0l0,0c0.1,0,0.2,0,0.3,0c0.2,0,0.5,0,0.9,0.2c0.4,0.2,0.6,0.5,0.7,0.7c0,0,0,0,0-0.1C11.9,7.4,11.9,7.2,12,7
		c-0.2,0-0.4,0-0.5-0.2l-0.1-0.1c-0.2-0.1-0.3-0.2-0.6-0.2c-0.2,0-0.3,0-0.3,0.1c-0.1,0-0.2,0.1-0.4,0.1c-0.1,0-0.3,0-0.5,0
		c-0.2,0-0.3,0-0.4-0.1C8.8,6.5,8.6,6.4,8.4,6.2c0,0-0.1-0.1-0.1-0.1c0,0-0.1-0.1-0.1-0.1C8,5.9,7.9,5.6,8,5.3c0-0.1,0-0.1,0-0.2
		c0,0,0-0.1,0-0.1l0,0l0,0l0,0c0-0.1,0.1-0.2,0.1-0.3C8,4.7,7.7,4.8,7.6,4.9C7.4,5,7.2,5.2,7.2,5.5L7.2,5.5z"/>
	<path d="M11.7,3.9c-0.1,0-0.2-0.1-0.3-0.1c0,0,0,0.1,0,0.1C11.5,3.8,11.6,3.8,11.7,3.9L11.7,3.9z"/>
	<path d="M2.7,3.7c-0.1,0-0.2,0-0.3,0c0.2,0.1,0.4,0.3,0.4,0.6c0.1,0,0.4-0.1,0.5-0.3C3.2,4,3.1,3.7,2.7,3.7L2.7,3.7z"/>
	<path d="M5.1,4.9c0.1,0,0.2,0,0.3,0.1c0-0.1,0-0.3,0-0.5c0-0.1-0.1-0.2-0.2-0.3C5.2,4.1,5.1,4,5,4c0,0.2,0.1,0.5-0.1,0.8
		C5,4.8,5,4.8,5.1,4.9z"/>
	<path d="M14.4,10.1c-0.2-0.1-0.3-0.1-0.5-0.2s-0.3-0.1-0.4-0.1c0,0-0.1,0-0.1,0c-0.5,0-1.3,0.1-2.1,0.3c-0.2,0-0.3,0.1-0.5,0.1
		c-0.1,0-0.3,0.1-0.4,0.1l0,0c-0.1,0-0.1,0-0.2,0.1c-0.2,0.1-0.4,0.1-0.7,0.2c-0.2,0-0.4,0-0.7,0c-0.2,0-0.3,0-0.4,0l-0.1,0
		c0,0.1,0.1,0.2,0.1,0.3c0.1,0.1,0.2,0.2,0.3,0.3l0.1,0.1c0.2,0.1,0.3,0.2,0.5,0.2c0.5,0,0.7-0.1,1-0.3c0.2-0.1,0.5-0.3,0.9-0.3
		c0.6-0.1,1.3-0.1,1.4-0.1c0,0,0.6-0.1,1.1-0.1c0.6,0,1.4,0.3,1.9,0.6c0.1,0.1,0.2,0.1,0.3,0.2C15.6,10.9,15,10.4,14.4,10.1
		L14.4,10.1z"/>
	<path d="M0.4,5.6C0.3,5.7,0.2,5.8,0.2,5.9c0,0,0.1,0,0.1,0s0.1,0,0.1,0C0.6,5.9,0.9,6,1,6.2C1.1,6.2,1.2,6,1.1,5.7
		C1,5.7,0.8,5.6,0.6,5.6C0.5,5.6,0.5,5.6,0.4,5.6L0.4,5.6z"/>
	<path d="M1.5,18.7c0-0.2,0-0.3,0-0.4c0,0,0,0,0,0s0,0,0,0l0,0c-0.1-0.1-0.1-0.1-0.1-0.1c-0.1,0-0.3,0.2-0.4,0.3c0,0,0,0.1,0,0.1
		c0,0,0,0.1,0,0.1c0,0.1,0,0.2,0,0.4C0.9,18.9,1.1,18.7,1.5,18.7L1.5,18.7z"/>
	<path d="M5.4,18.5c0.2,0.1,0.3,0.3,0.5,0.5C6,18.9,6,18.8,6,18.7c0,0,0-0.1,0-0.1s0-0.1,0-0.1c0-0.1-0.2-0.3-0.2-0.4
		C5.6,18.2,5.5,18.4,5.4,18.5z"/>
	<path d="M3.3,27c0.3-0.1,0.5-0.3,0.5-0.4c-0.1-0.1-0.3-0.2-0.5-0.3c0,0-0.1,0-0.1,0c0,0-0.1,0-0.1,0s-0.1,0-0.1,0c0,0-0.1,0-0.2,0
		c0,0-0.1,0-0.1,0c-0.1,0-0.1,0.1-0.2,0.1c0,0,0,0,0,0C2.8,26.5,3.2,26.7,3.3,27L3.3,27z"/>
	<path d="M16.9,8.3c-0.2-0.4-0.3-0.7-0.6-0.9c-0.2-0.2-0.4-0.3-0.7-0.4c-0.2,0.2-0.5,0.2-0.7,0.2c0.1,0.2,0.3,0.4,0.9,0.4l0.2,0
		l0,0.2c0,0,0,0.5-0.4,0.8c0,0,0,0,0,0c0.1,0,0.2,0.1,0.3,0.1c0.6,0.3,1.1,0.9,1.4,1.4c0,0.1,0.1,0.2,0.1,0.3c0.2,0,0.7,0,1.1-0.3
		c0.3-0.2,0.3-0.5,0.4-0.6c-0.4,0-0.7-0.1-1-0.2C17.4,9,17.1,8.7,16.9,8.3L16.9,8.3z"/>
	<path d="M1.7,29.3c0.2,0,0.3,0,0.5,0c0.1-0.3,0.1-0.6,0-0.7c-0.1,0-0.1,0-0.2,0c-0.1,0-0.2,0-0.2,0c-0.1,0-0.2,0.1-0.3,0.2
		c-0.2,0.2-0.2,0.4-0.2,0.6C1.5,29.3,1.6,29.3,1.7,29.3L1.7,29.3z"/>
	<path d="M0.8,16.4c0,0,0-0.1,0-0.3c0,0,0-0.1,0-0.2c0,0,0-0.1,0-0.1c-0.2,0-0.5,0-0.7,0.2C0.1,16.1,0,16.2,0,16.4
		c0.1,0,0.2-0.1,0.3-0.1C0.4,16.3,0.6,16.3,0.8,16.4L0.8,16.4z"/>
	<path d="M4.1,24.7c0.2,0.1,0.5,0.2,0.8,0.2c0.1,0,0.3,0,0.4,0c0.1,0,0.2-0.1,0.4-0.1c-0.1-0.1-0.3-0.3-0.4-0.4
		c-0.2-0.2-0.3-0.4-0.3-0.6C4.4,23.9,3.9,24,3.3,24c0,0,0,0,0,0C3.5,24.3,3.7,24.5,4.1,24.7L4.1,24.7z"/>
	<path d="M4.9,31.6c0,0,0.1,0,0.1,0s0.1,0,0.1-0.1c0.2-0.1,0.4-0.3,0.5-0.5c-0.1-0.2-0.1-0.3-0.1-0.5c0,0,0-0.1,0-0.1
		c0,0,0-0.1,0-0.1s0-0.1,0-0.1c0.1-0.2,0.1-0.3,0.2-0.4l0,0L6,30l0,0c-0.1,0.1-0.1,0.2-0.2,0.3c0,0,0,0.1,0,0.1s0,0.1,0,0.1
		c0,0,0,0.1,0,0.1c0,0.1,0,0.2,0.1,0.3c0.1,0.1,0.3,0.3,0.6,0.4c0.1,0,0.2,0.1,0.3,0.1c0.1,0,0.2,0,0.3,0c0,0,0,0,0-0.1
		c0-0.1,0.1-0.3,0.2-0.4c0.1-0.1,0.3-0.2,0.5-0.2c0.1,0,0.1,0,0.2,0c0.1-0.1,0.1-0.2,0.1-0.3c0,0,0-0.1,0-0.1c0,0,0-0.1,0-0.1
		c0,0,0-0.1,0-0.1c0-0.1,0-0.2-0.1-0.3c-0.1-0.1-0.2-0.2-0.2-0.2c-0.1-0.1-0.4-0.2-0.5-0.3l-0.3-0.1l0.2-0.1
		c0.3-0.2,0.6-0.3,0.9-0.2c0.3,0,0.6,0.1,0.9,0.3c0.1-0.1,0.4-0.4,0.7-0.8l0.1-0.1l0.1,0c0.1,0,1.3,0.3,1.4,1.1c0.1,0,0.5,0,0.8-0.4
		c0.1-0.1,0.1-0.5,0.1-0.8c0,0,0-0.1,0-0.1c0,0,0,0,0,0c-0.1-0.2-0.5-0.5-0.9-0.6c-0.1,0-0.1-0.1-0.2-0.1c-0.1,0-0.1,0-0.2-0.1
		l-0.1,0l0-0.1l0-0.2h0.1c0.1,0,0.2,0,0.2,0.1c0.1,0,0.1,0.1,0.2,0.1c0.3,0.2,0.8,0.4,1,0.8l0,0c0,0,0,0,0,0.1
		c0.1,0,0.2-0.1,0.3-0.1c0.1-0.1,0.1-0.2,0.1-0.4c0-0.2,0-0.4-0.1-0.5s-0.1-0.2-0.2-0.3c-0.4-0.2-1-0.5-1.1-0.6l-0.1-0.1l0.1-0.1
		c0,0,0.1-0.1,0.1-0.1c0.2-0.2,0.3-0.4,0.3-0.8c0-0.1,0-0.2-0.1-0.3c-0.1-0.1-0.2-0.2-0.3-0.3c-0.2-0.1-0.3-0.2-0.6-0.2
		c-0.2,0-0.5,0-0.7,0h0c-0.5,0-1-0.2-1.2-0.6c-0.1-0.1-0.1-0.2-0.1-0.3c0-0.1-0.1-0.2-0.1-0.3c0,0,0-0.1,0-0.1c0-0.3,0-0.7,0.3-1
		c0.3-0.3,0.8-0.5,1.5-0.6c0.1,0,0.2,0,0.3,0c0.2,0,0.4,0,0.5,0l0,0c-0.2-0.2-0.3-0.4-0.4-0.6c0-0.1-0.1-0.1-0.1-0.2
		c0-0.1,0-0.1-0.1-0.2c0-0.1,0-0.1,0-0.2c0-0.2,0-0.5,0.1-0.7c0,0,0-0.1,0-0.1s0-0.1,0-0.1c0,0,0-0.1,0-0.1c0.1-0.1,0.2-0.2,0.3-0.3
		l0,0c0,0,0.1-0.1,0.1-0.1c-0.2-0.1-0.4-0.1-0.6-0.1c-0.3,0-0.6,0-1,0.1l0,0h0c-0.2,0-0.4,0-0.7,0c-0.2,0-0.5,0-0.7,0
		c-0.4,0.1-0.7,0.1-0.9,0.2c-0.3,0.1-0.6,0.2-0.8,0.3c-0.6,0.3-1,0.5-1.3,0.9c-0.3,0.3-0.4,0.6-0.6,1l0,0c0,0-0.1,0.1-0.1,0.1
		c0,0.1-0.1,0.1-0.2,0.2c-0.2,0.1-0.8,0.6-1.8,0.8c-0.4,0.1-0.6,0.1-0.8,0.1c-0.1,0-0.3-0.1-0.4-0.1c0,0.3,0.2,0.9,1,1.3
		c0.1,0.1,0.2,0.1,0.3,0.1c0.1,0,0.2,0.1,0.3,0.1c0.5,0.1,1.1,0,1.7-0.3l0.2-0.1l0,0.2c0,0,0.1,0.4,0.3,0.6c0.4,0.4,0.8,0.7,1.2,1
		c0.5,0.3,1,0.4,1.8,0.5l0.1,0l0,0.1c0,0,0,0.6-0.8,1.4c0,0-0.1,0.1-0.1,0.1c-0.1,0.1-0.1,0.1-0.2,0.2s-0.1,0.1-0.2,0.2
		C6.9,27.9,6.5,28,6.1,28l0,0c-0.2,0-0.4,0-0.5-0.2c-0.1-0.1-0.2-0.3-0.3-0.6c-0.1-0.3-0.1-0.4-0.2-0.5c-0.1-0.1-0.3-0.2-0.5-0.2
		c0,0-0.1,0-0.1,0l0,0c0,0,0,0-0.1,0c-0.1,0-0.2,0.1-0.3,0.1c0,0.1-0.3,0.6-0.8,0.7c-0.1,0.1-0.1,0.1-0.2,0.2c0,0.1,0,0.1,0,0.2
		c0.2,0,0.3,0,0.5,0c0.2,0.1,0.5,0.2,0.7,0.5l0,0l-0.2,0.2l0,0C3.9,28.2,3.7,28,3.5,28c-0.2-0.1-0.4-0.1-0.6,0
		c-0.4,0.1-0.4,0.4-0.4,0.5c0.1,0.1,0.2,0.5,0,1c0,0.1,0,0.3,0.1,0.5c0.1,0.1,0.2,0.2,0.2,0.3l0,0c0,0,0,0,0,0c0,0,0-0.1,0-0.2
		c0-0.3,0.1-0.8,0.5-1.1c0,0,0.1-0.1,0.2-0.1c0.1,0,0.1-0.1,0.2-0.1c0.4-0.1,0.8-0.1,1.2,0.1l0.1,0l-0.1,0.2l-0.1,0
		c-0.2-0.1-0.4-0.1-0.6-0.1c-0.1,0-0.3,0-0.4,0c-0.1,0-0.1,0-0.2,0.1c0,0-0.1,0-0.1,0.1c-0.3,0.2-0.3,0.6-0.3,0.9c0,0.1,0,0.1,0,0.2
		c0,0,0,0,0,0c0.1-0.1,0.2-0.1,0.3-0.1c0.1,0,0.1,0,0.2,0c0.1,0,0.2,0.1,0.2,0.2c0.1,0.1,0.1,0.2,0.1,0.3c0,0.1,0,0.2,0,0.2
		c0,0,0,0.1,0,0.2c0,0,0,0,0,0c0,0,0,0.1,0,0.1c0,0,0,0,0,0c0,0,0,0,0.1,0.1c0,0,0.1,0.1,0.1,0.1l0,0c0.2,0.1,0.4,0.2,0.6,0.2v0.1
		l0-0.1C4.8,31.6,4.9,31.6,4.9,31.6L4.9,31.6z"/>
	<path d="M22.6,4.7C22.6,4.7,22.5,4.7,22.6,4.7c-0.1,0-0.2,0-0.2,0c0,0-0.1,0-0.1,0c-0.1,0.1-0.2,0.2-0.2,0.3c0,0,0,0.1,0,0.1
		c0,0,0,0,0,0.1s0,0,0,0.1c0,0.1,0.1,0.1,0.2,0.1c0,0,0.1,0,0.2,0c0.1,0,0.1,0,0.2,0c0.1,0,0.1,0,0.2,0c0.4,0,0.8,0,1,0
		c0,0,0,0,0.1,0c0,0,0,0,0.1-0.1s0-0.1,0.1-0.1c0-0.1,0-0.2,0-0.2c0,0,0-0.1,0-0.1c0-0.1,0-0.1-0.1-0.2c0,0-0.1-0.1-0.1-0.1
		c0,0-0.1,0-0.1,0c-0.2,0-0.4,0-0.7,0C23,4.7,22.7,4.7,22.6,4.7L22.6,4.7z"/>
	<path d="M7.8,32c0.3-0.3,0.3-0.7,0.2-0.9c-0.2,0-0.4,0-0.5,0.1c-0.1,0.1-0.1,0.1-0.2,0.2c0,0,0,0,0,0C7.6,31.5,7.8,31.8,7.8,32
		L7.8,32z"/>
	<path d="M3.7,31.1C3.7,31.1,3.7,31.1,3.7,31.1L3.7,31.1c0-0.1,0-0.2,0-0.2c0-0.1,0-0.1,0-0.2c0-0.1-0.1-0.1-0.1-0.2
		c0,0-0.1-0.1-0.1-0.1c0,0,0,0-0.1,0c0,0-0.1,0-0.1,0.1c0,0-0.1,0.1-0.1,0.1c0,0.1-0.1,0.1-0.1,0.2C3,30.9,3,31,3,31.1
		c0,0.1,0,0.2,0,0.2C3.1,31.3,3.4,31.1,3.7,31.1L3.7,31.1z"/>
	<path d="M25.3,7.8c0.1-0.2,0.1-0.4,0.1-0.7c0-0.6-0.3-1-0.7-1.2c-0.1,0-0.1-0.1-0.2-0.1c-0.1,0-0.2,0-0.2-0.1c0,0-0.1,0-0.1,0
		c0,0-0.1,0-0.1,0c-0.2,0-0.7,0-1,0c-0.1,0-0.2,0-0.2,0c-0.1,0-0.2,0-0.2,0c-0.1,0-0.1,0-0.2,0c-0.1,0-0.2,0-0.2-0.1
		c0,0-0.1,0-0.1,0c0,0-0.1,0-0.1,0c-0.2,0.1-0.4,0.2-0.5,0.4c-0.2,0.2-0.3,0.4-0.3,0.7C21,7,21,7.4,21,7.8c0,0.3,0.1,0.6,0.2,0.9
		c0.1,0.3,0.4,0.7,0.7,1c0.4,0.4,0.6,0.6,0.7,0.9c0.1,0.3,0.2,0.5,0.2,0.8c0,0.3-0.1,0.5-0.2,0.7c0.2,0,0.3-0.1,0.5-0.1
		c0.1,0,0.1-0.1,0.2-0.1c0.3-0.3,0.4-0.6,0.4-0.7c0-0.3,0-0.5-0.1-0.8c0-0.2-0.1-0.4-0.2-0.5l0,0c0-0.1-0.1-0.1-0.1-0.2
		c-0.1-0.1-0.1-0.2-0.2-0.3c-0.2-0.3-0.4-0.5-0.4-0.8V8.5h0.3v0.1c0,0.2,0.2,0.4,0.3,0.6c0.1,0.1,0.1,0.2,0.2,0.3
		c0,0.1,0.1,0.1,0.1,0.2c0.1,0.2,0.2,0.4,0.3,0.6c0.1,0.2,0.1,0.4,0.1,0.7c0,0,0,0,0,0c0.1,0,0.1-0.1,0.2-0.1c0,0,0.1-0.1,0.1-0.1
		c0.2-0.2,0.3-0.5,0.3-0.7c0,0,0-0.1,0-0.1c0-0.6-0.4-1.1-0.7-1.6c-0.2-0.3-0.3-0.5-0.4-0.7l0-0.1l0.3-0.1l0,0.1
		c0,0.1,0.2,0.4,0.3,0.6c0.2,0.4,0.6,0.8,0.7,1.3C25,9.3,25,8.7,24.9,8.4c-0.1-0.1-0.2-0.5-0.4-0.7c0,0-0.1-0.1-0.1-0.1
		c-0.2-0.2-0.3-0.3-0.4-0.9l0-0.1l0.3,0l0,0.1c0.1,0.5,0.2,0.6,0.4,0.8c0,0,0.1,0.1,0.1,0.1C24.9,7.7,25,8,25.1,8.1
		C25.2,8,25.2,7.9,25.3,7.8L25.3,7.8z"/>
	<path d="M11.6,8.8C11.6,8.8,11.6,8.8,11.6,8.8c-0.1,0-0.1,0-0.2,0.1c-0.2,0.1-0.6,0.3-1.1,0.5c-0.3,0.2-0.6,0.3-1,0.3
		C8.9,9.9,8.3,9.9,7.5,9.9l-0.2,0l-0.1,0c0,0.3,0,0.5,0.1,0.6c0,0,0.1,0.1,0.1,0.1c0.1,0.1,0.1,0.2,0.2,0.2c0,0,0,0,0,0
		c0,0,0,0,0.1,0c0.1,0,0.2,0,0.3,0.1c-0.1-0.1-0.1-0.3-0.1-0.4l0-0.1H8c0,0,0.3,0,0.7,0c0.3,0,0.5,0,0.7,0c0.2,0,0.4-0.1,0.6-0.1
		c0.1,0,0.1,0,0.2-0.1c0.1,0,0.3-0.1,0.5-0.1s0.3-0.1,0.5-0.1c0.8-0.2,1.7-0.3,2.2-0.3c0,0,0.1,0,0.1,0c0.1,0,0.3,0,0.4,0.1
		c0,0-0.1,0-0.1,0l0,0l0,0c-0.2-0.5-0.6-0.6-0.9-0.7c-0.1,0-0.1,0-0.2-0.1l-0.5,0C12,8.8,11.7,8.8,11.6,8.8L11.6,8.8L11.6,8.8z"/>
	<path d="M10.7,8.6c-0.1,0-0.1,0-0.2,0c-0.1,0-0.1,0-0.2,0c-0.1,0-0.3,0-0.5,0C9.9,8.7,9.8,8.7,9.6,8.8S9.4,8.9,9.2,9
		c-0.8,0.3-1.9,0.5-3,0.4c0,0.2,0,0.5,0.2,0.7c0.1,0.1,0.3,0.2,0.5,0.2c0-0.3,0-0.5,0-0.5l0-0.1h0.1c0,0,0.1,0,0.4,0
		c0.8,0,1.4-0.1,1.8-0.1c0.4-0.1,0.7-0.2,0.9-0.3c0.2-0.1,0.6-0.3,1-0.5c-0.1,0-0.2-0.1-0.3-0.1C10.9,8.6,10.8,8.6,10.7,8.6
		L10.7,8.6z"/>
	<path d="M10,7.5c0.1,0,0.1,0.1,0.1,0.1c0,0,0.1,0,0.1,0c0-0.1,0-0.2,0-0.3l0-0.1c0-0.1,0-0.1,0-0.2c-0.1,0-0.1,0-0.1,0l0,0h0l0,0h0
		c0,0,0,0.1-0.1,0.2C10,7.4,10,7.4,10,7.5L10,7.5z"/>
	<path d="M18.2,13.1L18.2,13.1c-0.1,0-0.1,0-0.1,0c-0.1,0-0.2,0-0.3,0c-0.1,0-0.2,0-0.3-0.1c-0.6-0.2-1.1-0.5-1.5-1.1c0,0,0,0,0,0
		l0,0c0,0-0.1-0.1-0.2-0.1c-0.1-0.1-0.2-0.1-0.3-0.2c-0.5-0.3-1.3-0.5-1.8-0.5c-0.5,0-0.9,0.1-1.1,0.1c-0.4,0.2-0.7,0.4-0.9,0.6
		c-0.1,0.2-0.2,0.4-0.2,0.7c0,0.3,0,0.5,0,0.6c0.3-0.3,1.2-0.9,2.1-0.9c0.5,0,1,0.2,1.5,0.6c0.1,0.1,0.2,0.2,0.4,0.3
		c0.1,0.1,0.2,0.2,0.4,0.4c0.1,0.1,0.1,0.1,0.2,0.2c0.3,0.2,0.5,0.4,0.8,0.5c0.2,0.1,0.4,0.1,0.7,0.1v0.1l0-0.1
		c0.9,0,1.3-0.8,1.4-1.2c0,0,0,0,0,0C18.7,13.1,18.5,13.1,18.2,13.1L18.2,13.1z"/>
	<path d="M8,13.2L8,13.2c0.1,0,0.2,0,0.2,0c0.1,0,0.2,0,0.2,0c0.4,0,0.9-0.2,1.3-0.3c0.1-0.1,0.2-0.1,0.4-0.2l0,0
		c0.5-0.2,0.8-0.4,1.1-0.4c0-0.3,0.1-0.5,0.2-0.7c0.1-0.2,0.3-0.3,0.5-0.5c-0.2,0-0.5,0-0.8,0.1c-0.4,0.1-0.6,0.2-0.8,0.3
		c-0.2,0.1-0.4,0.2-0.7,0.3c-0.1,0.1-0.1,0.1-0.3,0.2C9.3,12,9.2,12.1,9,12.1c-0.9,0.3-1.4,0.4-1.7,0.4l-0.1,0c0,0,0,0.1,0,0.1
		c0,0.1,0,0.1,0.1,0.2C7.5,13.1,7.8,13.2,8,13.2L8,13.2z"/>
	<path d="M6.3,10.4c0,0-0.1,0-0.1,0.1c-0.3,0.1-0.6,0.4-0.8,0.5c-0.2,0.1-0.4,0.2-0.6,0.3c-0.2,0-0.3,0.1-0.5,0.1
		c-0.1,0-0.2,0-0.4,0c0,0-0.1,0-0.1,0c0,0.2,0.2,0.6,0.7,0.7c0.1,0,0.2-0.1,0.3-0.1l0,0c0.1,0,0.3-0.1,0.5-0.2
		c0.2-0.1,0.5-0.3,0.7-0.3l0-0.1l0.1,0c0.1,0,0.1-0.1,0.2-0.1c0.1-0.1,0.2-0.1,0.3-0.2C6.7,11,6.8,11,6.9,10.9
		c0.1,0,0.2-0.1,0.3-0.1c0,0,0,0,0-0.1c0,0-0.1-0.1-0.1-0.1c0,0,0,0,0-0.1C6.7,10.6,6.5,10.5,6.3,10.4C6.3,10.4,6.3,10.4,6.3,10.4
		L6.3,10.4z"/>
	<path d="M12,21.4l0.1,0c0.1,0,0.1,0,0.2,0c0,0,0-0.1,0-0.1c-0.1-0.2-0.2-0.4-0.2-0.7c0-0.3,0.1-0.6,0.1-1c0-0.3,0.1-0.5,0.1-0.8
		c0-0.1,0-0.1,0-0.1c0-0.2-0.1-0.5-0.3-0.8c-0.1-0.1-0.1-0.1-0.2-0.2c-0.1-0.1-0.1-0.1-0.2-0.2c-0.1-0.1-0.1-0.1-0.2-0.1l0,0
		l-0.3,0.3c0.2,0.1,0.7,0.5,0.7,1c0,0.1-0.1,0.2-0.2,0.3l0,0c-0.1,0.1-0.2,0.2-0.2,0.2c0,0,0,0,0,0.1c0,0,0,0.1,0,0.1s0,0.1,0,0.1
		c0,0.2-0.1,0.4-0.1,0.6c0,0,0,0.1,0,0.1c0,0.1,0,0.1,0,0.2c0,0.1,0,0.1,0.1,0.2C11.5,20.9,11.7,21.2,12,21.4L12,21.4z"/>
	<path d="M5.1,13.9c0.2,0.1,0.5,0.2,0.9,0.2l0.1,0c0.5-0.2,1.1-0.5,1.5-0.7c-0.2-0.1-0.4-0.3-0.5-0.5c0-0.1-0.1-0.1-0.1-0.2
		c0,0,0-0.1,0-0.1c-0.2,0-0.2,0-0.3,0c-0.3,0.2-0.7,0.4-1.1,0.6c-0.3,0.1-0.6,0.2-0.9,0.2C4.8,13.7,4.9,13.8,5.1,13.9L5.1,13.9z"/>
	<path d="M17.4,7.2c-0.2-0.2-0.3-0.4-0.3-0.7c0-0.1-0.1-0.2-0.1-0.3c-0.1-0.2-0.2-0.3-0.3-0.5c-0.1-0.1-0.3-0.2-0.5-0.4
		C15.9,5.1,15.6,5,15.4,5c-0.1,0-0.1,0-0.2,0c0,0,0,0,0,0c0,0.1,0,0.1,0,0.2c0,0.3,0,0.6,0.1,0.7C15.4,5.9,15.4,6,15.6,6
		c0.1,0,0.3,0.1,0.4,0.1l0.2,0l0,0.2c0,0-0.1,0.3-0.3,0.5c0.3,0.1,0.5,0.3,0.7,0.4c0.2,0.2,0.4,0.5,0.6,0.9c0,0.1,0,0.1,0.1,0.1l0,0
		c0.9-0.1,1.1-0.6,1.2-0.9c-0.1,0-0.2,0-0.3,0C17.8,7.4,17.6,7.4,17.4,7.2L17.4,7.2z"/>
	<path d="M1.6,9.2L1.6,9.2c0.1,0,0.2,0,0.3,0c0-0.4-0.1-0.5-0.2-0.5C1.5,8.8,1.1,8.8,1,8.8l-0.1,0c0,0,0,0,0,0
		C1.1,9.1,1.3,9.2,1.6,9.2L1.6,9.2z"/>
	<path d="M10.1,5.8c0,0-0.1,0-0.1,0c0,0,0,0.1,0,0.1c0,0.1,0.1,0.2,0.2,0.4c0,0,0.1,0,0.1,0l0,0c0-0.2,0-0.3,0.1-0.4
		C10.3,5.8,10.2,5.8,10.1,5.8L10.1,5.8z"/>
	<path d="M1.8,13.9C1.9,14,2,14.1,2.1,14.2c0.1,0,0.3,0,0.4-0.3c-0.1-0.1-0.4-0.3-0.7-0.3c-0.1,0-0.3,0-0.4,0.1
		C1.6,13.8,1.7,13.8,1.8,13.9z"/>
</g>
</svg>
